<?xml version="1.0" encoding="UTF-8" standalone="no"?>
<!-- Created with Inkscape (http://www.inkscape.org/) -->

<svg
   xmlns:dc="http://purl.org/dc/elements/1.1/"
   xmlns:cc="http://creativecommons.org/ns#"
   xmlns:rdf="http://www.w3.org/1999/02/22-rdf-syntax-ns#"
   xmlns:svg="http://www.w3.org/2000/svg"
   xmlns="http://www.w3.org/2000/svg"
   xmlns:sodipodi="http://sodipodi.sourceforge.net/DTD/sodipodi-0.dtd"
   xmlns:inkscape="http://www.inkscape.org/namespaces/inkscape"
   width="335.05682"
   height="215.83229"
   id="svg2"
   version="1.1"
   inkscape:version="0.48.4 r9939"
   sodipodi:docname="virt-builder.svg">
  <sodipodi:namedview
     id="base"
     pagecolor="#ffffff"
     bordercolor="#666666"
     borderopacity="1.0"
     inkscape:pageopacity="0.0"
     inkscape:pageshadow="2"
     inkscape:zoom="1"
     inkscape:cx="94.76256"
     inkscape:cy="100.50571"
     inkscape:document-units="px"
     inkscape:current-layer="layer1"
     showgrid="false"
     inkscape:window-width="1366"
     inkscape:window-height="715"
     inkscape:window-x="0"
     inkscape:window-y="31"
     inkscape:window-maximized="1"
     fit-margin-top="20"
     fit-margin-left="20"
     fit-margin-right="20"
     fit-margin-bottom="20" />
  <defs
     id="defs4">
    <marker
       inkscape:stockid="Arrow1Sstart"
       orient="auto"
       refY="0"
       refX="0"
       id="Arrow1Sstart"
       style="overflow:visible">
      <path
         id="path4250"
         d="M 0,0 5,-5 -12.5,0 5,5 0,0 z"
         style="fill-rule:evenodd;stroke:#000000;stroke-width:1pt"
         transform="matrix(0.2,0,0,0.2,1.2,0)"
         inkscape:connector-curvature="0" />
    </marker>
    <marker
       inkscape:stockid="Arrow2Lstart"
       orient="auto"
       refY="0"
       refX="0"
       id="Arrow2Lstart"
       style="overflow:visible">
      <path
         id="path4256"
         style="fill-rule:evenodd;stroke-width:0.625;stroke-linejoin:round"
         d="M 8.7185878,4.0337352 -2.2072895,0.01601326 8.7185884,-4.0017078 c -1.7454984,2.3720609 -1.7354408,5.6174519 -6e-7,8.035443 z"
         transform="matrix(1.1,0,0,1.1,1.1,0)"
         inkscape:connector-curvature="0" />
    </marker>
    <marker
       inkscape:stockid="Arrow1Mstart"
       orient="auto"
       refY="0"
       refX="0"
       id="Arrow1Mstart"
       style="overflow:visible">
      <path
         id="path4244"
         d="M 0,0 5,-5 -12.5,0 5,5 0,0 z"
         style="fill-rule:evenodd;stroke:#000000;stroke-width:1pt"
         transform="matrix(0.4,0,0,0.4,4,0)"
         inkscape:connector-curvature="0" />
    </marker>
    <marker
       inkscape:stockid="Arrow1Lstart"
       orient="auto"
       refY="0"
       refX="0"
       id="Arrow1Lstart"
       style="overflow:visible">
      <path
         id="path4238"
         d="M 0,0 5,-5 -12.5,0 5,5 0,0 z"
         style="fill-rule:evenodd;stroke:#000000;stroke-width:1pt"
         transform="matrix(0.8,0,0,0.8,10,0)"
         inkscape:connector-curvature="0" />
    </marker>
    <marker
       inkscape:stockid="Arrow1Lend"
       orient="auto"
       refY="0"
       refX="0"
       id="Arrow1Lend"
       style="overflow:visible">
      <path
         id="path4241"
         d="M 0,0 5,-5 -12.5,0 5,5 0,0 z"
         style="fill-rule:evenodd;stroke:#000000;stroke-width:1pt"
         transform="matrix(-0.8,0,0,-0.8,-10,0)"
         inkscape:connector-curvature="0" />
    </marker>
  </defs>
  <metadata
     id="metadata7">
    <rdf:RDF>
      <cc:Work
         rdf:about="">
        <dc:format>image/svg+xml</dc:format>
        <dc:type
           rdf:resource="http://purl.org/dc/dcmitype/StillImage" />
        <dc:title />
      </cc:Work>
    </rdf:RDF>
  </metadata>
  <g
     id="layer1"
     inkscape:groupmode="layer"
     inkscape:label="Layer 1"
     transform="translate(-76.514606,-19.108356)">
    <rect
       ry="19"
       y="52.311161"
       x="102.0051"
       height="162.12949"
       width="167.18025"
       id="rect2985"
       style="fill:#d5fff6;fill-opacity:1;stroke:#000000;stroke-width:1;stroke-miterlimit:4;stroke-opacity:1;stroke-dasharray:none;stroke-dashoffset:0" />
    <g
       style="fill:#ffc832;fill-opacity:1"
       id="g4088"
       transform="matrix(1.4083516,0,0,1.4082207,164.88827,107.47455)">
      <path
         inkscape:connector-curvature="0"
         style="fill:#ffc832;fill-opacity:1;stroke:#000000;stroke-width:1.40828609"
         d="m 178.59375,39.8125 -7.3125,8.84375 -1.5625,4.15625 -0.5,5.53125 -10.90625,0.25 -0.71875,-5.5 -1.75,-4.09375 -7.6875,-8.5 -5.25,1.53125 -1.90625,11.3125 0.75,4.375 2.34375,5.0625 -9.3125,5.65625 -3.40625,-4.40625 -3.5625,-2.65625 -10.90625,-3.53125 -3.78125,3.9375 4,10.75 2.84375,3.4375 4.5625,3.1875 -5.25,9.5625 -5.125,-2.09375 -4.4375,-0.5625 L 98.5,88.5 l -1.28125,5.28125 8.84375,7.3125 4.1875,1.5625 5.53125,0.46875 0.21875,10.90625 -5.5,0.75 -4.09375,1.75 -8.5,7.6875 1.53125,5.21875 11.3125,1.90625 4.40625,-0.71875 5.03125,-2.34375 5.65625,9.3125 -4.40625,3.40625 -2.65625,3.5625 -3.53125,10.90625 3.9375,3.75 10.75,-4 3.4375,-2.84375 3.1875,-4.53125 9.5625,5.25 -2.09375,5.125 -0.53125,4.40625 2.40625,11.21875 5.28125,1.28125 7.3125,-8.8125 1.5625,-4.1875 0.46875,-5.53125 10.90625,-0.25 0.75,5.5 1.75,4.09375 7.6875,8.5 5.21875,-1.53125 L 188.75,161.625 188.03125,157.21875 185.6875,152.1875 195,146.5 l 3.40625,4.40625 3.5625,2.6875 10.90625,3.5 3.75,-3.9375 -4,-10.75 -2.8125,-3.4375 -4.5625,-3.1875 5.25,-9.5625 5.125,2.125 4.4375,0.53125 11.1875,-2.40625 1.3125,-5.3125 -8.84375,-7.28125 -4.1875,-1.5625 -5.53125,-0.5 -0.25,-10.90625 5.5,-0.75 4.125,-1.71875 8.5,-7.71875 -1.53125,-5.21875 -11.3125,-1.90625 -4.40625,0.75 -5.03125,2.34375 -5.65625,-9.34375 4.40625,-3.375 L 211,70.40625 214.53125,59.5 l -3.9375,-3.78125 -10.75,4 -3.4375,2.84375 -3.1875,4.53125 L 183.65625,61.875 185.75,56.75 186.28125,52.3125 183.875,41.09375 178.59375,39.8125 z M 164.4375,71 c 20.22358,0 36.59375,16.40142 36.59375,36.625 0,20.22358 -16.37017,36.625 -36.59375,36.625 -20.22358,0 -36.625,-16.40142 -36.625,-36.625 0,-20.22358 16.40142,-36.625 36.625,-36.625 z"
         transform="matrix(0.71004996,0,0,0.71011596,-117.07891,-76.319394)"
         id="path3295" />
      <path
         sodipodi:type="arc"
         style="fill:#ffc832;fill-opacity:1;stroke:#000000;stroke-width:1;stroke-miterlimit:4;stroke-opacity:1;stroke-dasharray:none;stroke-dashoffset:0"
         id="path4084"
         sodipodi:cx="164.1498"
         sodipodi:cy="107.11194"
         sodipodi:rx="11.111678"
         sodipodi:ry="10.859139"
         d="m 175.26147,107.11194 c 0,5.99734 -4.97486,10.85914 -11.11167,10.85914 -6.13681,0 -11.11168,-4.8618 -11.11168,-10.85914 0,-5.99734 4.97487,-10.859141 11.11168,-10.859141 6.13681,0 11.11167,4.861801 11.11167,10.859141 z"
         transform="matrix(0.71004996,0,0,0.71011596,-117.07891,-76.319394)" />
    </g>
    <rect
       ry="1.0714287"
       y="178.14789"
       x="105.35714"
       height="3.214287"
       width="285.71429"
       id="rect4086"
       style="fill:#ffc832;fill-opacity:1;stroke:#000000;stroke-width:1;stroke-miterlimit:4;stroke-opacity:1;stroke-dasharray:none;stroke-dashoffset:0" />
    <rect
       ry="1.3948706"
       y="142.86218"
       x="220.28572"
       height="31.785713"
       width="31.071426"
       id="rect4092"
       style="fill:#ff5555;fill-opacity:1;stroke:#000000;stroke-width:1;stroke-miterlimit:4;stroke-opacity:1;stroke-dasharray:none;stroke-dashoffset:0" />
    <rect
       style="fill:#0088aa;fill-opacity:1;stroke:#000000;stroke-width:1;stroke-miterlimit:4;stroke-opacity:1;stroke-dasharray:none;stroke-dashoffset:0"
       id="rect4094"
       width="31.071426"
       height="31.785713"
       x="258.28574"
       y="142.86218"
       ry="1.3948706" />
    <rect
       transform="matrix(0.98735873,-0.15850151,0.15850151,0.98735874,0,0)"
       ry="1.3948706"
       y="188.93877"
       x="271.44739"
       height="31.785713"
       width="31.071426"
       id="rect4096"
       style="fill:#d42aff;fill-opacity:1;stroke:#000000;stroke-width:1;stroke-miterlimit:4;stroke-opacity:1;stroke-dasharray:none;stroke-dashoffset:0" />
    <rect
       style="fill:#00ff66;fill-opacity:1;stroke:#000000;stroke-width:1;stroke-miterlimit:4;stroke-opacity:1;stroke-dasharray:none;stroke-dashoffset:0"
       id="rect4098"
       width="31.071426"
       height="31.785713"
       x="344.28561"
       y="142.86218"
       ry="1.3948706" />
    <text
       xml:space="preserve"
       style="font-size:28px;font-style:normal;font-variant:normal;font-weight:normal;font-stretch:normal;text-align:center;line-height:125%;letter-spacing:0px;word-spacing:0px;writing-mode:lr-tb;text-anchor:middle;fill:#000000;fill-opacity:1;stroke:none;font-family:Liberation Sans;-inkscape-font-specification:Liberation Sans"
       x="185.32748"
       y="206.8645"
       id="text4108"
       sodipodi:linespacing="125%"><tspan
         sodipodi:role="line"
         id="tspan4110"
         x="185.32748"
         y="206.8645">virt-builder</tspan></text>
    <path
       sodipodi:type="arc"
       style="fill:none;stroke:#000004;stroke-width:5;stroke-miterlimit:4;stroke-opacity:1;stroke-dasharray:none;stroke-dashoffset:0;marker-start:url(#Arrow1Sstart);marker-end:none"
       id="path4232"
       sodipodi:cx="483.57144"
       sodipodi:cy="122.36218"
       sodipodi:rx="68.571426"
       sodipodi:ry="67.14286"
       d="m 548.18715,99.887148 a 68.571426,67.14286 0 0 1 -2.86973,51.677762"
       sodipodi:start="5.9418618"
       sodipodi:end="6.7331505"
       sodipodi:open="true"
       transform="matrix(0.43267838,0.31154824,-0.28684402,0.23652503,-28.481648,-73.683536)" />
  </g>
</svg>
